<svg width="44" height="44" viewBox="0 0 44 44" fill="none" xmlns="http://www.w3.org/2000/svg">
<g clip-path="url(#clip0_26_1087)">
<path d="M16.5001 9.16663H12.8334C11.861 9.16663 10.9283 9.55293 10.2407 10.2406C9.55306 10.9282 9.16675 11.8608 9.16675 12.8333V34.8333C9.16675 35.8058 9.55306 36.7384 10.2407 37.426C10.9283 38.1137 11.861 38.5 12.8334 38.5H31.1667C32.1392 38.5 33.0718 38.1137 33.7595 37.426C34.4471 36.7384 34.8334 35.8058 34.8334 34.8333V12.8333C34.8334 11.8608 34.4471 10.9282 33.7595 10.2406C33.0718 9.55293 32.1392 9.16663 31.1667 9.16663H27.5001" stroke="white" stroke-width="3" stroke-linecap="round" stroke-linejoin="round"/>
<path d="M23.8333 5.5H20.1667C18.1416 5.5 16.5 7.14162 16.5 9.16667C16.5 11.1917 18.1416 12.8333 20.1667 12.8333H23.8333C25.8584 12.8333 27.5 11.1917 27.5 9.16667C27.5 7.14162 25.8584 5.5 23.8333 5.5Z" stroke="white" stroke-width="3" stroke-linecap="round" stroke-linejoin="round"/>
<path d="M25.6666 20.1666H21.0833C20.3539 20.1666 19.6544 20.4564 19.1387 20.9721C18.623 21.4878 18.3333 22.1873 18.3333 22.9166C18.3333 23.646 18.623 24.3454 19.1387 24.8612C19.6544 25.3769 20.3539 25.6666 21.0833 25.6666H22.9166C23.6459 25.6666 24.3454 25.9564 24.8611 26.4721C25.3769 26.9878 25.6666 27.6873 25.6666 28.4166C25.6666 29.146 25.3769 29.8454 24.8611 30.3612C24.3454 30.8769 23.6459 31.1666 22.9166 31.1666H18.3333" stroke="white" stroke-width="3" stroke-linecap="round" stroke-linejoin="round"/>
<path d="M22 18.3334V20.1667M22 31.1667V33V31.1667Z" stroke="white" stroke-width="3" stroke-linecap="round" stroke-linejoin="round"/>
</g>
<defs>
<clipPath id="clip0_26_1087">
<rect width="44" height="44" fill="white"/>
</clipPath>
</defs>
</svg>
